<mxfile host="app.diagrams.net" modified="2023-10-18T06:30:20.041Z" agent="Mozilla/5.0 (Windows NT 10.0; Win64; x64) AppleWebKit/537.36 (KHTML, like Gecko) Chrome/118.0.0.0 Safari/537.36" etag="F4o3KwSuhgtS08yBOGvz" version="22.0.4" type="github">
  <diagram name="Page-1" id="RJbHu5sxq5I47JQGmV-o">
    <mxGraphModel dx="3970" dy="2160" grid="1" gridSize="10" guides="1" tooltips="1" connect="1" arrows="1" fold="1" page="1" pageScale="1" pageWidth="850" pageHeight="1100" background="#ffffff" math="0" shadow="0">
      <root>
        <mxCell id="0" />
        <mxCell id="1" parent="0" />
        <mxCell id="B1Z8W7b9JruNJQS_tEDy-1" value="" style="shape=umlLifeline;perimeter=lifelinePerimeter;whiteSpace=wrap;html=1;container=1;dropTarget=0;collapsible=0;recursiveResize=0;outlineConnect=0;portConstraint=eastwest;newEdgeStyle={&quot;curved&quot;:0,&quot;rounded&quot;:0};participant=umlActor;fontColor=#006633;fontSize=9;" parent="1" vertex="1">
          <mxGeometry x="50" y="50" width="20" height="990" as="geometry" />
        </mxCell>
        <mxCell id="B1Z8W7b9JruNJQS_tEDy-2" value="Identity" style="shape=umlLifeline;perimeter=lifelinePerimeter;whiteSpace=wrap;html=1;container=1;dropTarget=0;collapsible=0;recursiveResize=0;outlineConnect=0;portConstraint=eastwest;newEdgeStyle={&quot;curved&quot;:0,&quot;rounded&quot;:0};fontColor=#006633;fontSize=9;" parent="1" vertex="1">
          <mxGeometry x="120" y="30" width="100" height="1030" as="geometry" />
        </mxCell>
        <mxCell id="B1Z8W7b9JruNJQS_tEDy-16" value="" style="html=1;points=[[0,0,0,0,5],[0,1,0,0,-5],[1,0,0,0,5],[1,1,0,0,-5]];perimeter=orthogonalPerimeter;outlineConnect=0;targetShapes=umlLifeline;portConstraint=eastwest;newEdgeStyle={&quot;curved&quot;:0,&quot;rounded&quot;:0};fontColor=#006633;fontSize=9;" parent="B1Z8W7b9JruNJQS_tEDy-2" vertex="1">
          <mxGeometry x="45" y="190" width="10" height="330" as="geometry" />
        </mxCell>
        <mxCell id="7NolPieeRoY720Yne-j5-18" value="" style="html=1;points=[[0,0,0,0,5],[0,1,0,0,-5],[1,0,0,0,5],[1,1,0,0,-5]];perimeter=orthogonalPerimeter;outlineConnect=0;targetShapes=umlLifeline;portConstraint=eastwest;newEdgeStyle={&quot;curved&quot;:0,&quot;rounded&quot;:0};fontSize=9;fontColor=#006633;" vertex="1" parent="B1Z8W7b9JruNJQS_tEDy-2">
          <mxGeometry x="45" y="540" width="10" height="300" as="geometry" />
        </mxCell>
        <mxCell id="B1Z8W7b9JruNJQS_tEDy-3" value="iSprint" style="shape=umlLifeline;perimeter=lifelinePerimeter;whiteSpace=wrap;html=1;container=1;dropTarget=0;collapsible=0;recursiveResize=0;outlineConnect=0;portConstraint=eastwest;newEdgeStyle={&quot;curved&quot;:0,&quot;rounded&quot;:0};fontColor=#006633;fontSize=9;" parent="1" vertex="1">
          <mxGeometry x="285" y="30" width="100" height="1020" as="geometry" />
        </mxCell>
        <mxCell id="B1Z8W7b9JruNJQS_tEDy-19" value="" style="html=1;points=[[0,0,0,0,5],[0,1,0,0,-5],[1,0,0,0,5],[1,1,0,0,-5]];perimeter=orthogonalPerimeter;outlineConnect=0;targetShapes=umlLifeline;portConstraint=eastwest;newEdgeStyle={&quot;curved&quot;:0,&quot;rounded&quot;:0};fontColor=#006633;fontSize=9;" parent="B1Z8W7b9JruNJQS_tEDy-3" vertex="1">
          <mxGeometry x="45" y="280" width="10" height="50" as="geometry" />
        </mxCell>
        <mxCell id="B1Z8W7b9JruNJQS_tEDy-4" value="RDS" style="shape=umlLifeline;perimeter=lifelinePerimeter;whiteSpace=wrap;html=1;container=1;dropTarget=0;collapsible=0;recursiveResize=0;outlineConnect=0;portConstraint=eastwest;newEdgeStyle={&quot;curved&quot;:0,&quot;rounded&quot;:0};fontColor=#006633;fontSize=9;" parent="1" vertex="1">
          <mxGeometry x="430" y="30" width="100" height="990" as="geometry" />
        </mxCell>
        <mxCell id="B1Z8W7b9JruNJQS_tEDy-22" value="" style="html=1;points=[[0,0,0,0,5],[0,1,0,0,-5],[1,0,0,0,5],[1,1,0,0,-5]];perimeter=orthogonalPerimeter;outlineConnect=0;targetShapes=umlLifeline;portConstraint=eastwest;newEdgeStyle={&quot;curved&quot;:0,&quot;rounded&quot;:0};fontColor=#006633;fontSize=9;" parent="B1Z8W7b9JruNJQS_tEDy-4" vertex="1">
          <mxGeometry x="45" y="350" width="10" height="90" as="geometry" />
        </mxCell>
        <mxCell id="B1Z8W7b9JruNJQS_tEDy-5" value="Entity" style="shape=umlLifeline;perimeter=lifelinePerimeter;whiteSpace=wrap;html=1;container=1;dropTarget=0;collapsible=0;recursiveResize=0;outlineConnect=0;portConstraint=eastwest;newEdgeStyle={&quot;curved&quot;:0,&quot;rounded&quot;:0};fontColor=#006633;fontSize=9;" parent="1" vertex="1">
          <mxGeometry x="610" y="30" width="100" height="990" as="geometry" />
        </mxCell>
        <mxCell id="B1Z8W7b9JruNJQS_tEDy-37" value="" style="html=1;points=[[0,0,0,0,5],[0,1,0,0,-5],[1,0,0,0,5],[1,1,0,0,-5]];perimeter=orthogonalPerimeter;outlineConnect=0;targetShapes=umlLifeline;portConstraint=eastwest;newEdgeStyle={&quot;curved&quot;:0,&quot;rounded&quot;:0};fontColor=#006633;fontSize=9;" parent="B1Z8W7b9JruNJQS_tEDy-5" vertex="1">
          <mxGeometry x="45" y="550" width="10" height="80" as="geometry" />
        </mxCell>
        <mxCell id="7NolPieeRoY720Yne-j5-12" value="" style="html=1;points=[[0,0,0,0,5],[0,1,0,0,-5],[1,0,0,0,5],[1,1,0,0,-5]];perimeter=orthogonalPerimeter;outlineConnect=0;targetShapes=umlLifeline;portConstraint=eastwest;newEdgeStyle={&quot;curved&quot;:0,&quot;rounded&quot;:0};fontColor=#006633;fontSize=9;" vertex="1" parent="B1Z8W7b9JruNJQS_tEDy-5">
          <mxGeometry x="45" y="440" width="10" height="80" as="geometry" />
        </mxCell>
        <mxCell id="B1Z8W7b9JruNJQS_tEDy-7" value="Redirect to sinpass" style="html=1;verticalAlign=bottom;endArrow=block;curved=0;rounded=0;fontColor=#006633;fontSize=9;" parent="1" edge="1">
          <mxGeometry relative="1" as="geometry">
            <mxPoint x="60" y="120" as="sourcePoint" />
            <mxPoint x="775.5" y="120" as="targetPoint" />
          </mxGeometry>
        </mxCell>
        <mxCell id="B1Z8W7b9JruNJQS_tEDy-17" value="Pass the authcode to &lt;br style=&quot;font-size: 9px;&quot;&gt;UP backend&lt;br style=&quot;font-size: 9px;&quot;&gt;singpass/login" style="html=1;verticalAlign=bottom;endArrow=block;curved=0;rounded=0;entryX=0;entryY=0;entryDx=0;entryDy=5;fontColor=#006633;fontSize=9;" parent="1" source="B1Z8W7b9JruNJQS_tEDy-1" target="B1Z8W7b9JruNJQS_tEDy-16" edge="1">
          <mxGeometry relative="1" as="geometry">
            <mxPoint x="-10" y="325" as="sourcePoint" />
          </mxGeometry>
        </mxCell>
        <mxCell id="B1Z8W7b9JruNJQS_tEDy-20" value="&lt;font style=&quot;font-size: 9px;&quot;&gt;query/user/find&lt;br style=&quot;font-size: 9px;&quot;&gt;pass -&amp;gt; NRIC&lt;br style=&quot;font-size: 9px;&quot;&gt;&lt;/font&gt;" style="html=1;verticalAlign=bottom;endArrow=block;curved=0;rounded=0;entryX=0;entryY=0;entryDx=0;entryDy=5;entryPerimeter=0;fontColor=#006633;fontSize=9;" parent="1" source="B1Z8W7b9JruNJQS_tEDy-16" target="B1Z8W7b9JruNJQS_tEDy-19" edge="1">
          <mxGeometry relative="1" as="geometry">
            <mxPoint x="200" y="330" as="sourcePoint" />
            <mxPoint x="270" y="325" as="targetPoint" />
          </mxGeometry>
        </mxCell>
        <mxCell id="B1Z8W7b9JruNJQS_tEDy-21" value="&lt;span style=&quot;font-size: 9px;&quot;&gt;get user details&lt;/span&gt;" style="html=1;verticalAlign=bottom;endArrow=open;dashed=1;endSize=8;curved=0;rounded=0;fontColor=#006633;fontSize=9;" parent="1" source="B1Z8W7b9JruNJQS_tEDy-19" edge="1" target="B1Z8W7b9JruNJQS_tEDy-16">
          <mxGeometry relative="1" as="geometry">
            <mxPoint x="174" y="340" as="targetPoint" />
            <mxPoint x="304" y="340" as="sourcePoint" />
          </mxGeometry>
        </mxCell>
        <mxCell id="B1Z8W7b9JruNJQS_tEDy-23" value="&lt;font style=&quot;font-size: 9px;&quot;&gt;find the user record using &lt;br style=&quot;font-size: 9px;&quot;&gt;uuid from isprint&lt;br style=&quot;font-size: 9px;&quot;&gt;&lt;/font&gt;" style="html=1;verticalAlign=bottom;endArrow=block;curved=0;rounded=0;fontColor=#006633;fontSize=9;" parent="1" edge="1">
          <mxGeometry relative="1" as="geometry">
            <mxPoint x="175" y="400" as="sourcePoint" />
            <mxPoint x="475" y="400" as="targetPoint" />
          </mxGeometry>
        </mxCell>
        <mxCell id="B1Z8W7b9JruNJQS_tEDy-25" value="return" style="html=1;verticalAlign=bottom;endArrow=open;dashed=1;endSize=8;rounded=0;strokeColor=default;fontColor=#006633;fontSize=9;entryX=1;entryY=0.5;entryDx=0;entryDy=0;" parent="1" target="B1Z8W7b9JruNJQS_tEDy-28" edge="1" source="B1Z8W7b9JruNJQS_tEDy-22">
          <mxGeometry x="0.0044" relative="1" as="geometry">
            <mxPoint x="475" y="460" as="sourcePoint" />
            <mxPoint x="380" y="465" as="targetPoint" />
            <mxPoint as="offset" />
          </mxGeometry>
        </mxCell>
        <mxCell id="7NolPieeRoY720Yne-j5-16" style="edgeStyle=orthogonalEdgeStyle;rounded=0;orthogonalLoop=1;jettySize=auto;html=1;exitX=0.5;exitY=1;exitDx=0;exitDy=0;fontSize=9;fontColor=#006633;" edge="1" parent="1" source="B1Z8W7b9JruNJQS_tEDy-28" target="B1Z8W7b9JruNJQS_tEDy-2">
          <mxGeometry relative="1" as="geometry">
            <Array as="points">
              <mxPoint x="340" y="580" />
            </Array>
          </mxGeometry>
        </mxCell>
        <mxCell id="7NolPieeRoY720Yne-j5-17" value="Yes" style="edgeLabel;html=1;align=center;verticalAlign=middle;resizable=0;points=[];fontSize=9;fontColor=#006633;" vertex="1" connectable="0" parent="7NolPieeRoY720Yne-j5-16">
          <mxGeometry x="0.4048" y="-9" relative="1" as="geometry">
            <mxPoint as="offset" />
          </mxGeometry>
        </mxCell>
        <mxCell id="B1Z8W7b9JruNJQS_tEDy-28" value="&lt;font style=&quot;font-size: 9px;&quot;&gt;Check if the uuid &lt;br style=&quot;font-size: 9px;&quot;&gt;is available&lt;/font&gt;" style="rhombus;whiteSpace=wrap;html=1;fontColor=#006633;fontSize=9;" parent="1" vertex="1">
          <mxGeometry x="290" y="410" width="100" height="70" as="geometry" />
        </mxCell>
        <mxCell id="B1Z8W7b9JruNJQS_tEDy-38" value="&lt;font style=&quot;font-size: 9px;&quot;&gt;Get user details by NRIC&lt;/font&gt;" style="html=1;verticalAlign=bottom;endArrow=block;curved=0;rounded=0;fontColor=#006633;fontSize=9;" parent="1" target="B1Z8W7b9JruNJQS_tEDy-37" edge="1">
          <mxGeometry relative="1" as="geometry">
            <mxPoint x="176" y="600" as="sourcePoint" />
            <mxPoint x="630" y="600" as="targetPoint" />
          </mxGeometry>
        </mxCell>
        <mxCell id="7NolPieeRoY720Yne-j5-1" value="&lt;font style=&quot;font-size: 9px;&quot;&gt;Customer clicks &lt;br style=&quot;font-size: 9px;&quot;&gt;Login with Singpass&lt;/font&gt;" style="text;html=1;align=center;verticalAlign=middle;resizable=0;points=[];autosize=1;strokeColor=none;fillColor=none;fontSize=9;fontColor=#006633;" vertex="1" parent="1">
          <mxGeometry x="70" y="80" width="100" height="40" as="geometry" />
        </mxCell>
        <mxCell id="7NolPieeRoY720Yne-j5-2" value="Singpass" style="shape=umlLifeline;perimeter=lifelinePerimeter;whiteSpace=wrap;html=1;container=1;dropTarget=0;collapsible=0;recursiveResize=0;outlineConnect=0;portConstraint=eastwest;newEdgeStyle={&quot;curved&quot;:0,&quot;rounded&quot;:0};fontColor=#006633;fontSize=9;" vertex="1" parent="1">
          <mxGeometry x="730" y="30" width="100" height="990" as="geometry" />
        </mxCell>
        <mxCell id="7NolPieeRoY720Yne-j5-3" value="" style="html=1;points=[[0,0,0,0,5],[0,1,0,0,-5],[1,0,0,0,5],[1,1,0,0,-5]];perimeter=orthogonalPerimeter;outlineConnect=0;targetShapes=umlLifeline;portConstraint=eastwest;newEdgeStyle={&quot;curved&quot;:0,&quot;rounded&quot;:0};fontColor=#006633;fontSize=9;" vertex="1" parent="7NolPieeRoY720Yne-j5-2">
          <mxGeometry x="45" y="550" width="10" height="80" as="geometry" />
        </mxCell>
        <mxCell id="7NolPieeRoY720Yne-j5-4" value="" style="html=1;points=[[0,0,0,0,5],[0,1,0,0,-5],[1,0,0,0,5],[1,1,0,0,-5]];perimeter=orthogonalPerimeter;outlineConnect=0;targetShapes=umlLifeline;portConstraint=eastwest;newEdgeStyle={&quot;curved&quot;:0,&quot;rounded&quot;:0};fontColor=#006633;fontSize=9;" vertex="1" parent="7NolPieeRoY720Yne-j5-2">
          <mxGeometry x="45" y="83" width="10" height="80" as="geometry" />
        </mxCell>
        <mxCell id="7NolPieeRoY720Yne-j5-6" value="" style="html=1;points=[[0,0,0,0,5],[0,1,0,0,-5],[1,0,0,0,5],[1,1,0,0,-5]];perimeter=orthogonalPerimeter;outlineConnect=0;targetShapes=umlLifeline;portConstraint=eastwest;newEdgeStyle={&quot;curved&quot;:0,&quot;rounded&quot;:0};fontColor=#006633;fontSize=9;" vertex="1" parent="7NolPieeRoY720Yne-j5-2">
          <mxGeometry x="45" y="180" width="10" height="80" as="geometry" />
        </mxCell>
        <mxCell id="7NolPieeRoY720Yne-j5-5" value="&lt;font style=&quot;font-size: 9px;&quot;&gt;After successful login,&lt;br style=&quot;font-size: 9px;&quot;&gt;Redirects to UP with auth code as url param&lt;/font&gt;" style="html=1;verticalAlign=bottom;endArrow=open;dashed=1;endSize=8;curved=0;rounded=0;fontSize=9;fontColor=#006633;entryX=0.5;entryY=0.121;entryDx=0;entryDy=0;entryPerimeter=0;" edge="1" parent="1" target="B1Z8W7b9JruNJQS_tEDy-1">
          <mxGeometry relative="1" as="geometry">
            <mxPoint x="775" y="166" as="sourcePoint" />
            <mxPoint x="90" y="170" as="targetPoint" />
          </mxGeometry>
        </mxCell>
        <mxCell id="7NolPieeRoY720Yne-j5-7" value="Get the user details using authcode" style="html=1;verticalAlign=bottom;endArrow=block;curved=0;rounded=0;exitX=1;exitY=0;exitDx=0;exitDy=5;exitPerimeter=0;fontSize=9;fontColor=#006633;" edge="1" parent="1" source="B1Z8W7b9JruNJQS_tEDy-16" target="7NolPieeRoY720Yne-j5-6">
          <mxGeometry width="80" relative="1" as="geometry">
            <mxPoint x="185" y="230" as="sourcePoint" />
            <mxPoint x="265" y="230" as="targetPoint" />
          </mxGeometry>
        </mxCell>
        <mxCell id="7NolPieeRoY720Yne-j5-8" value="return" style="html=1;verticalAlign=bottom;endArrow=open;dashed=1;endSize=8;curved=0;rounded=0;fontSize=9;fontColor=#006633;" edge="1" parent="1">
          <mxGeometry relative="1" as="geometry">
            <mxPoint x="775" y="270" as="sourcePoint" />
            <mxPoint x="175" y="270" as="targetPoint" />
          </mxGeometry>
        </mxCell>
        <mxCell id="7NolPieeRoY720Yne-j5-13" value="No" style="html=1;verticalAlign=bottom;endArrow=open;dashed=1;endSize=8;curved=0;rounded=0;exitX=0;exitY=0.5;exitDx=0;exitDy=0;fontSize=9;fontColor=#006633;" edge="1" parent="1" source="B1Z8W7b9JruNJQS_tEDy-28" target="B1Z8W7b9JruNJQS_tEDy-2">
          <mxGeometry relative="1" as="geometry">
            <mxPoint x="290" y="444.5" as="sourcePoint" />
            <mxPoint x="210" y="444.5" as="targetPoint" />
          </mxGeometry>
        </mxCell>
        <mxCell id="7NolPieeRoY720Yne-j5-14" value="&lt;font style=&quot;font-size: 9px;&quot;&gt;Get user details by NRIC&lt;/font&gt;" style="html=1;verticalAlign=bottom;endArrow=block;curved=0;rounded=0;fontSize=9;fontColor=#006633;" edge="1" parent="1">
          <mxGeometry width="80" relative="1" as="geometry">
            <mxPoint x="176" y="488" as="sourcePoint" />
            <mxPoint x="656" y="488" as="targetPoint" />
          </mxGeometry>
        </mxCell>
        <mxCell id="7NolPieeRoY720Yne-j5-22" value="return" style="html=1;verticalAlign=bottom;endArrow=open;dashed=1;endSize=8;curved=0;rounded=0;fontSize=9;fontColor=#006633;" edge="1" parent="1" source="B1Z8W7b9JruNJQS_tEDy-5">
          <mxGeometry relative="1" as="geometry">
            <mxPoint x="250" y="520" as="sourcePoint" />
            <mxPoint x="170" y="520" as="targetPoint" />
          </mxGeometry>
        </mxCell>
        <mxCell id="7NolPieeRoY720Yne-j5-23" value="Show user details popup&lt;br style=&quot;font-size: 9px;&quot;&gt;for seamless login" style="html=1;verticalAlign=bottom;endArrow=open;dashed=1;endSize=8;curved=0;rounded=0;fontSize=9;fontColor=#006633;" edge="1" parent="1" target="B1Z8W7b9JruNJQS_tEDy-1">
          <mxGeometry relative="1" as="geometry">
            <mxPoint x="160" y="520" as="sourcePoint" />
            <mxPoint x="80" y="520" as="targetPoint" />
          </mxGeometry>
        </mxCell>
        <mxCell id="7NolPieeRoY720Yne-j5-24" value="return" style="html=1;verticalAlign=bottom;endArrow=open;dashed=1;endSize=8;curved=0;rounded=0;fontSize=9;fontColor=#006633;" edge="1" parent="1">
          <mxGeometry relative="1" as="geometry">
            <mxPoint x="660" y="634.5" as="sourcePoint" />
            <mxPoint x="170" y="634.5" as="targetPoint" />
          </mxGeometry>
        </mxCell>
        <mxCell id="7NolPieeRoY720Yne-j5-32" value="Check if isprint user status is active" style="rhombus;whiteSpace=wrap;html=1;fontColor=#006633;fontSize=9;" vertex="1" parent="1">
          <mxGeometry x="220" y="680" width="100" height="70" as="geometry" />
        </mxCell>
        <mxCell id="7NolPieeRoY720Yne-j5-33" value="" style="html=1;verticalAlign=bottom;endArrow=block;rounded=0;entryX=0.5;entryY=0;entryDx=0;entryDy=0;edgeStyle=orthogonalEdgeStyle;fontSize=9;fontColor=#006633;" edge="1" parent="1" source="7NolPieeRoY720Yne-j5-18" target="7NolPieeRoY720Yne-j5-32">
          <mxGeometry width="80" relative="1" as="geometry">
            <mxPoint x="170" y="684.5" as="sourcePoint" />
            <mxPoint x="250" y="684.5" as="targetPoint" />
            <Array as="points">
              <mxPoint x="270" y="650" />
            </Array>
          </mxGeometry>
        </mxCell>
        <mxCell id="7NolPieeRoY720Yne-j5-34" value="Show error in ui" style="html=1;verticalAlign=bottom;endArrow=open;dashed=1;endSize=8;curved=0;rounded=0;fontSize=9;fontColor=#006633;" edge="1" parent="1" target="B1Z8W7b9JruNJQS_tEDy-1">
          <mxGeometry relative="1" as="geometry">
            <mxPoint x="220" y="714.5" as="sourcePoint" />
            <mxPoint x="140" y="714.5" as="targetPoint" />
          </mxGeometry>
        </mxCell>
        <mxCell id="7NolPieeRoY720Yne-j5-36" value="No" style="text;html=1;align=center;verticalAlign=middle;resizable=0;points=[];autosize=1;strokeColor=none;fillColor=none;fontSize=9;fontColor=#006633;" vertex="1" parent="1">
          <mxGeometry x="180" y="693" width="40" height="20" as="geometry" />
        </mxCell>
        <mxCell id="7NolPieeRoY720Yne-j5-38" value="Generate cookie and &lt;br style=&quot;font-size: 9px;&quot;&gt;load dashboard" style="html=1;verticalAlign=bottom;endArrow=open;dashed=1;endSize=8;rounded=0;exitX=0.5;exitY=1;exitDx=0;exitDy=0;entryX=0.467;entryY=0.743;entryDx=0;entryDy=0;entryPerimeter=0;edgeStyle=orthogonalEdgeStyle;fontSize=9;fontColor=#006633;" edge="1" parent="1" source="7NolPieeRoY720Yne-j5-32" target="B1Z8W7b9JruNJQS_tEDy-1">
          <mxGeometry x="0.5049" relative="1" as="geometry">
            <mxPoint x="30" y="770" as="sourcePoint" />
            <mxPoint x="-30" y="750" as="targetPoint" />
            <Array as="points">
              <mxPoint x="270" y="796" />
            </Array>
            <mxPoint as="offset" />
          </mxGeometry>
        </mxCell>
        <mxCell id="7NolPieeRoY720Yne-j5-39" value="Yes" style="text;html=1;align=center;verticalAlign=middle;resizable=0;points=[];autosize=1;strokeColor=none;fillColor=none;fontSize=9;fontColor=#006633;" vertex="1" parent="1">
          <mxGeometry x="220" y="763" width="40" height="20" as="geometry" />
        </mxCell>
      </root>
    </mxGraphModel>
  </diagram>
</mxfile>
